<svg width="382" height="490" viewBox="0 0 382 490" fill="none" xmlns="http://www.w3.org/2000/svg">
    <path d="M365.251 381.658C365.251 372.302 372.64 364.915 381.999 364.668V343.739C372.886 343.739 365.251 336.106 365.251 326.995C365.251 317.884 372.64 310.251 381.999 310.251V289.322C372.886 289.322 365.251 281.688 365.251 272.578C365.251 263.467 372.64 255.834 381.999 255.834V234.904C372.886 234.904 365.251 227.271 365.251 218.161C365.251 209.05 372.64 201.417 381.999 201.417V180.487C372.886 180.487 365.251 172.854 365.251 163.744C365.251 154.633 372.64 147 381.999 147V126.07C372.886 126.07 365.251 118.437 365.251 109.327C365.251 100.216 372.64 92.5829 381.999 92.5829V71.6533C372.886 71.6533 365.251 64.0201 365.251 54.9096C365.251 45.799 372.64 38.1658 381.999 38.1658V17.2362C377.319 17.2362 373.379 15.2663 370.423 12.3116C367.468 9.35678 365.497 5.17086 365.497 0.492464C365.497 0.246233 365.497 0.246231 365.497 0L344.562 0C344.562 0.246231 344.562 0.49246 344.562 0.738692C344.562 10.0955 336.927 17.4824 327.815 17.4824C318.702 17.4824 311.067 9.84924 311.067 0.738692C311.067 0.49246 311.067 0.246231 311.067 0L290.132 0C290.132 0.246231 290.132 0.49246 290.132 0.738692C290.132 10.0955 282.497 17.4824 273.384 17.4824C264.025 17.4824 256.636 9.84924 256.636 0.738692C256.636 0.49246 256.636 0.246231 256.636 0L235.701 0C235.701 0.246231 235.701 0.49246 235.701 0.738692C235.701 10.0955 228.066 17.4824 218.953 17.4824C209.594 17.4824 202.205 9.84924 202.205 0.738692C202.205 0.49246 202.205 0.246231 202.205 0L180.778 0C180.778 0.246231 180.778 0.49246 180.778 0.738692C180.778 10.0955 173.143 17.4824 164.03 17.4824C154.671 17.4824 147.282 9.84924 147.282 0.738692C147.282 0.49246 147.282 0.246231 147.282 0L126.347 0C126.347 0.246231 126.347 0.49246 126.347 0.738692C126.347 10.0955 118.712 17.4824 109.599 17.4824C100.24 17.4824 92.8514 9.84924 92.8514 0.738692C92.8514 0.49246 92.8514 0.246231 92.8514 0L71.9165 0C71.9165 0.246231 71.9165 0.49246 71.9165 0.738692C71.9165 10.0955 64.2814 17.4824 55.1686 17.4824C45.8095 17.4824 38.4207 9.84924 38.4207 0.738692C38.4207 0.49246 38.4207 0.246231 38.4207 0L17.4858 0C17.4858 0.246231 17.4858 0.246233 17.4858 0.492464C17.4858 5.17086 15.5155 9.35678 12.5599 12.3116C9.60443 15.2663 5.41747 17.2362 0.737909 17.2362C0.491616 17.2362 0.245316 17.2362 -0.000976562 17.2362L-0.000976562 38.1658C0.245316 38.1658 0.491616 38.1658 0.737909 38.1658C10.097 38.1658 17.4858 45.799 17.4858 54.9096C17.4858 64.2663 9.85074 71.6533 0.737909 71.6533C0.491616 71.6533 0.245316 71.6533 -0.000976562 71.6533L-0.000976562 92.3367C0.245316 92.3367 0.491616 92.3367 0.737909 92.3367C10.097 92.3367 17.4858 99.9699 17.4858 109.08C17.4858 118.437 9.85074 125.824 0.737909 125.824C0.491616 125.824 0.245316 125.824 -0.000976562 125.824L-0.000976562 146.754C0.245316 146.754 0.491616 146.754 0.737909 146.754C10.097 146.754 17.4858 154.387 17.4858 163.497C17.4858 172.854 9.85074 180.241 0.737909 180.241C0.491616 180.241 0.245316 180.241 -0.000976562 180.241L-0.000976562 201.171C0.245316 201.171 0.491616 201.171 0.737909 201.171C10.097 201.171 17.4858 208.804 17.4858 217.915C17.4858 227.025 9.85074 234.658 0.737909 234.658C0.491616 234.658 0.245316 234.658 -0.000976562 234.658L-0.000976562 255.588C0.245316 255.588 0.491616 255.588 0.737909 255.588C10.097 255.588 17.4858 263.221 17.4858 272.332C17.4858 281.688 9.85074 289.075 0.737909 289.075C0.491616 289.075 0.245316 289.075 -0.000976562 289.075L-0.000976562 310.005C0.245316 310.005 0.491616 310.005 0.737909 310.005C10.097 310.005 17.4858 317.638 17.4858 326.749C17.4858 335.859 9.85074 343.492 0.737909 343.492C0.491616 343.492 0.245316 343.492 -0.000976562 343.492L-0.000976562 364.422C0.245316 364.422 0.491616 364.422 0.737909 364.422C10.097 364.422 17.4858 372.055 17.4858 381.166C17.4858 390.523 9.85074 397.91 0.737909 397.91C0.491616 397.91 0.245316 397.91 -0.000976562 397.91L-0.000976562 418.839C0.245316 418.839 0.491616 418.839 0.737909 418.839C10.097 418.839 17.4858 426.472 17.4858 435.583C17.4858 444.94 9.85074 452.327 0.737909 452.327C0.491616 452.327 0.245316 452.327 -0.000976562 452.327L-0.000976562 473.256C0.245316 473.256 0.491616 473.256 0.737909 473.256C5.41747 473.256 9.60443 475.226 12.5599 478.181C15.5155 481.136 17.4858 485.322 17.4858 490H38.4207C38.4207 480.643 46.0558 473.256 55.1686 473.256C64.5277 473.256 71.9165 480.889 71.9165 490H92.8514C92.8514 480.643 100.486 473.256 109.599 473.256C118.958 473.256 126.347 480.889 126.347 490H147.282C147.282 480.643 154.917 473.256 164.03 473.256C173.389 473.256 180.778 480.889 180.778 490H201.713C201.713 480.643 209.348 473.256 218.461 473.256C227.82 473.256 235.209 480.889 235.209 490H256.143C256.143 480.643 263.779 473.256 272.891 473.256C282.25 473.256 289.639 480.889 289.639 490H310.574C310.574 480.643 318.209 473.256 327.322 473.256C336.435 473.256 344.07 480.889 344.07 490H365.005C365.005 485.322 366.975 481.136 369.931 478.181C372.886 475.226 377.073 473.256 381.506 473.256V452.327C372.394 452.327 364.759 444.693 364.759 435.583C364.759 426.472 372.147 418.839 381.506 418.839V397.91C372.886 398.402 365.251 390.769 365.251 381.658Z" fill="white"/>
</svg>