<svg xmlns="http://www.w3.org/2000/svg" width="20" height="20" viewBox="0 0 20 20" fill="none">
    <path fill-rule="evenodd" clip-rule="evenodd" d="M16.5 3H3.5C3.22386 3 3 3.22386 3 3.5V19.5C3 19.7761 3.22386 20 3.5 20H16.5C16.7761 20 17 19.7761 17 19.5V3.5C17 3.22386 16.7761 3 16.5 3ZM4.5 18.5V4.5H15.5V18.5H4.5Z" fill="#FDC13D"/>
    <path d="M2.5 4.44995C2.08579 4.44995 1.75 4.11416 1.75 3.69995C1.75 3.28574 2.08579 2.94995 2.5 2.94995L17.5 2.94995C17.9142 2.94995 18.25 3.28574 18.25 3.69995C18.25 4.11416 17.9142 4.44995 17.5 4.44995H2.5Z" fill="#FDC13D"/>
    <path fill-rule="evenodd" clip-rule="evenodd" d="M13.5 0H6.5C6.22386 0 6 0.223858 6 0.5V4C6 4.27614 6.22386 4.5 6.5 4.5H13.5C13.7761 4.5 14 4.27614 14 4V0.5C14 0.223858 13.7761 0 13.5 0ZM7.5 3V1.5H12.5V3H7.5Z" fill="#FDC13D"/>
    <path d="M11.25 8C11.25 7.58579 11.5858 7.25 12 7.25C12.4142 7.25 12.75 7.58579 12.75 8V15C12.75 15.4142 12.4142 15.75 12 15.75C11.5858 15.75 11.25 15.4142 11.25 15V8Z" fill="#FDC13D"/>
    <path d="M7.25 8C7.25 7.58579 7.58579 7.25 8 7.25C8.41421 7.25 8.75 7.58579 8.75 8V15C8.75 15.4142 8.41421 15.75 8 15.75C7.58579 15.75 7.25 15.4142 7.25 15V8Z" fill="#FDC13D"/>
</svg>