<svg width="11" height="20" viewBox="0 0 11 20" fill="none" xmlns="http://www.w3.org/2000/svg">
<path d="M0 16.1572V5.38148C0 2.40471 2.45984 2.40684e-07 5.4995 2.46865e-07C8.53977 -0.000889664 11 2.40433 11 5.38148V16.7739C11 17.2265 10.682 17.5374 10.2242 17.5374C9.76645 17.5374 9.44841 17.2265 9.44841 16.7739V5.38148C9.44841 3.24742 7.68841 1.52679 5.50032 1.52679C3.31202 1.52679 1.55131 3.24756 1.55131 5.38148V16.1572C1.55131 17.4287 2.61859 18.4721 3.92435 18.4721C5.23008 18.4721 6.29739 17.4287 6.29739 16.1572L6.29827 5.62732C6.29827 5.21737 5.92365 4.85113 5.49916 4.85113C5.07468 4.85113 4.70005 5.21737 4.70005 5.62732V15.8489C4.70005 16.3014 4.38201 16.6123 3.92426 16.6123C3.4665 16.6123 3.14847 16.3014 3.14847 15.8488L3.14935 5.62732C3.14935 4.37464 4.22385 3.32419 5.50007 3.32419C6.77615 3.32419 7.8499 4.37449 7.8499 5.62732V16.0958C7.8499 18.2623 6.09301 19.9999 3.92541 20C1.76705 19.9999 0 18.2723 0 16.1572Z" fill="#FDC13D"/>
</svg>
