<svg width="16px" height="16px" viewBox="0 0 16 16" version="1.1" xmlns="http://www.w3.org/2000/svg" xmlns:xlink="http://www.w3.org/1999/xlink">
	<g stroke="none" stroke-width="1" fill="none" fill-rule="evenodd">
		<g transform="translate(-982.000000, -2874.000000)">
			<g transform="translate(980.000000, 2872.000000)">
				<rect x="0" y="0" width="20" height="20"></rect>
				<path id="RectangleNewWindow" d="M16.25,7.25 L16.25,3 C16.25,2.58578644 16.5857864,2.25 17,2.25 C17.4142136,2.25 17.75,2.58578644 17.75,3 L17.75,7.5 C17.75,8.19035594 17.1903559,8.75 16.5,8.75 L12,8.75 C11.5857864,8.75 11.25,8.41421356 11.25,8 C11.25,7.58578644 11.5857864,7.25 12,7.25 L16.25,7.25 Z" fill="#0E2F4B" fill-rule="nonzero" transform="translate(14.500000, 5.500000) rotate(-90.000000) translate(-14.500000, -5.500000) "></path>
				<path id="RectangleNewWindow" d="M16.25,3.75 L13,3.75 C12.5857864,3.75 12.25,3.41421356 12.25,3 C12.25,2.58578644 12.5857864,2.25 13,2.25 L16.5,2.25 C17.1903559,2.25 17.75,2.80964406 17.75,3.5 L17.75,16.5 C17.75,17.1903559 17.1903559,17.75 16.5,17.75 L3.5,17.75 C2.80964406,17.75 2.25,17.1903559 2.25,16.5 L2.25,13 C2.25,12.5857864 2.58578644,12.25 3,12.25 C3.41421356,12.25 3.75,12.5857864 3.75,13 L3.75,16.25 L16.25,16.25 L16.25,3.75 Z" fill="#0E2F4B" fill-rule="nonzero" transform="translate(10.000000, 10.000000) scale(-1, -1) rotate(-90.000000) translate(-10.000000, -10.000000) "></path>
				<path id="LineNewWindow" d="M15.9696699,2.96966991 C16.2625631,2.6767767 16.7374369,2.6767767 17.0303301,2.96966991 C17.3232233,3.26256313 17.3232233,3.73743687 17.0303301,4.03033009 L8.03033009,13.0303301 C7.73743687,13.3232233 7.26256313,13.3232233 6.96966991,13.0303301 C6.6767767,12.7374369 6.6767767,12.2625631 6.96966991,11.9696699 L15.9696699,2.96966991 Z" fill="#0E2F4B" fill-rule="nonzero"></path>
			</g>
		</g>
	</g>
</svg>