<svg width="39" height="39" viewBox="0 0 39 39" fill="none" xmlns="http://www.w3.org/2000/svg">
<path d="M13.9146 32.9008C6.29272 29.689 2.70536 20.8752 5.91712 13.2533C7.4208 9.68493 10.243 6.85536 13.766 5.32398C13.766 5.32398 13.7474 4.37335 13.7228 3.19998C13.6993 2.02706 14.6259 1.59683 15.7935 2.23872L22.6302 6.00194C23.7978 6.64413 23.8204 7.72409 22.6805 8.41399L16.0026 12.4543C14.862 13.1437 13.9216 12.8878 13.9013 11.8815L13.8641 10.0601C12.0777 11.2246 10.6507 12.8924 9.80777 14.8928C7.49968 20.3701 10.0779 26.7023 15.5541 29.0099C21.0312 31.3179 27.3642 28.7402 29.672 23.2634C30.399 21.5381 30.6665 19.6505 30.444 17.8048C30.3048 16.647 31.13 15.5959 32.2876 15.4567C33.4458 15.3172 34.4963 16.1426 34.6357 17.301C34.9453 19.8734 34.5746 22.5021 33.5629 24.9028C30.3511 32.5248 21.5369 36.1127 13.9146 32.9008Z" fill="#0E2F4B"/>
</svg>
