<svg width="39" height="39" viewBox="0 0 39 39" fill="none" xmlns="http://www.w3.org/2000/svg">
<path d="M25.0854 32.9008C32.7073 29.689 36.2946 20.8752 33.0829 13.2533C31.5792 9.68493 28.757 6.85536 25.234 5.32398C25.234 5.32398 25.2526 4.37335 25.2772 3.19998C25.3007 2.02706 24.3741 1.59683 23.2065 2.23872L16.3698 6.00194C15.2022 6.64413 15.1796 7.72409 16.3195 8.41399L22.9974 12.4543C24.138 13.1437 25.0784 12.8878 25.0987 11.8815L25.1359 10.0601C26.9223 11.2246 28.3493 12.8924 29.1922 14.8928C31.5003 20.3701 28.9221 26.7023 23.4459 29.0099C17.9688 31.3179 11.6358 28.7402 9.32797 23.2634C8.60097 21.5381 8.33351 19.6505 8.55601 17.8048C8.69523 16.647 7.87003 15.5959 6.71236 15.4567C5.55418 15.3172 4.50374 16.1426 4.3643 17.301C4.05467 19.8734 4.42544 22.5021 5.4371 24.9028C8.6489 32.5248 17.4631 36.1127 25.0854 32.9008Z" fill="#0E2F4B"/>
</svg>
