<svg width="16" height="16" viewBox="0 0 16 16" fill="none" xmlns="http://www.w3.org/2000/svg">
<path fill-rule="evenodd" clip-rule="evenodd" d="M15.75 0.878904V14.8711C15.75 15.1054 15.6679 15.3105 15.5039 15.4863C15.3398 15.6621 15.1289 15.75 14.8711 15.75H10.8633V9.63279H12.9023L13.2187 7.27733H10.8633V5.76561C10.8633 5.36717 10.9336 5.08593 11.0742 4.92186C11.2617 4.71093 11.5781 4.60546 12.0234 4.60546H13.289V2.46093C12.7968 2.41406 12.1875 2.39062 11.4609 2.39062C10.5468 2.39062 9.80857 2.66015 9.24607 3.19921C8.68357 3.73827 8.40232 4.51171 8.40232 5.51952V7.27733H6.36327V9.63279H8.40232V15.75H0.878904C0.621092 15.75 0.410155 15.6621 0.246093 15.4863C0.0820309 15.3105 0 15.1054 0 14.8711V0.878904C0 0.621092 0.0820309 0.410155 0.246093 0.246093C0.410155 0.0820309 0.621092 0 0.878904 0H14.8711C15.1054 0 15.3105 0.0820309 15.4863 0.246093C15.6621 0.410155 15.75 0.621092 15.75 0.878904Z" fill="#0E2F4B"/>
</svg>
