<svg width="17" height="16" viewBox="0 0 17 16" fill="none" xmlns="http://www.w3.org/2000/svg">
<path id="&#239;&#130;&#154; &#239;&#133;&#173; &#239;&#130;&#153;" fill-rule="evenodd" clip-rule="evenodd" d="M8.58592 3.83202C9.31248 3.83202 9.98631 4.01366 10.6074 4.37694C11.2285 4.74022 11.7207 5.23241 12.084 5.8535C12.4472 6.47459 12.6289 7.14842 12.6289 7.87498C12.6289 8.60154 12.4472 9.27537 12.084 9.89646C11.7207 10.5176 11.2285 11.0097 10.6074 11.373C9.98631 11.7363 9.31248 11.9179 8.58592 11.9179C7.85936 11.9179 7.18553 11.7363 6.56444 11.373C5.94335 11.0097 5.45116 10.5176 5.08788 9.89646C4.7246 9.27537 4.54296 8.60154 4.54296 7.87498C4.54296 7.14842 4.7246 6.47459 5.08788 5.8535C5.45116 5.23241 5.94335 4.74022 6.56444 4.37694C7.18553 4.01366 7.85936 3.83202 8.58592 3.83202ZM8.58592 10.5117C9.31248 10.5117 9.93357 10.2539 10.4492 9.73826C10.9648 9.22263 11.2226 8.60154 11.2226 7.87498C11.2226 7.14842 10.9648 6.52733 10.4492 6.0117C9.93357 5.49608 9.31248 5.23827 8.58592 5.23827C7.85936 5.23827 7.23827 5.49608 6.72264 6.0117C6.20702 6.52733 5.94921 7.14842 5.94921 7.87498C5.94921 8.60154 6.20702 9.22263 6.72264 9.73826C7.23827 10.2539 7.85936 10.5117 8.58592 10.5117ZM13.7539 3.65624C13.7304 3.91405 13.6308 4.13671 13.455 4.32421C13.2793 4.51171 13.0625 4.60546 12.8047 4.60546C12.5468 4.60546 12.3242 4.51171 12.1367 4.32421C11.9492 4.13671 11.8554 3.91405 11.8554 3.65624C11.8554 3.39843 11.9492 3.17577 12.1367 2.98827C12.3242 2.80077 12.5468 2.70702 12.8047 2.70702C13.0625 2.70702 13.2851 2.80077 13.4726 2.98827C13.6601 3.17577 13.7539 3.39843 13.7539 3.65624ZM16.4257 4.60546C16.4492 5.26171 16.4609 6.35155 16.4609 7.87498C16.4609 9.39841 16.4433 10.4941 16.4082 11.1621C16.373 11.83 16.2734 12.4101 16.1093 12.9023C15.8984 13.4882 15.5761 13.998 15.1425 14.4316C14.709 14.8652 14.1992 15.1875 13.6133 15.3984C13.1211 15.5625 12.541 15.6621 11.873 15.6972C11.2051 15.7324 10.1094 15.75 8.58592 15.75C7.06249 15.75 5.96678 15.7324 5.29882 15.6972C4.63085 15.6621 4.05077 15.5507 3.55859 15.3632C2.97265 15.1757 2.46289 14.8652 2.02929 14.4316C1.5957 13.998 1.27344 13.4882 1.0625 12.9023C0.898437 12.4101 0.798828 11.83 0.763672 11.1621C0.728516 10.4941 0.710938 9.39841 0.710938 7.87498C0.710938 6.35155 0.728516 5.25585 0.763672 4.58788C0.798828 3.91991 0.898437 3.33984 1.0625 2.84765C1.27344 2.26171 1.5957 1.75195 2.02929 1.31836C2.46289 0.884764 2.97265 0.562499 3.55859 0.351562C4.05077 0.187499 4.63085 0.0878904 5.29882 0.0527342C5.96678 0.0175781 7.06249 0 8.58592 0C10.1094 0 11.2051 0.0175781 11.873 0.0527342C12.541 0.0878904 13.1211 0.187499 13.6133 0.351562C14.1992 0.562499 14.709 0.884764 15.1425 1.31836C15.5761 1.75195 15.8984 2.26171 16.1093 2.84765C16.2734 3.33984 16.3789 3.92577 16.4257 4.60546ZM14.7382 12.5156C14.8789 12.1172 14.9726 11.4843 15.0195 10.6172C15.0429 10.1015 15.0547 9.37498 15.0547 8.43748V7.31248C15.0547 6.35155 15.0429 5.62499 15.0195 5.1328C14.9726 4.24218 14.8789 3.60937 14.7382 3.23437C14.457 2.50781 13.9531 2.0039 13.2265 1.72265C12.8515 1.58203 12.2187 1.48828 11.3281 1.4414C10.8125 1.41797 10.0859 1.40625 9.14842 1.40625H8.02342C7.08592 1.40625 6.35936 1.41797 5.84374 1.4414C4.97655 1.48828 4.34374 1.58203 3.9453 1.72265C3.21874 2.0039 2.71484 2.50781 2.43359 3.23437C2.29296 3.60937 2.19922 4.24218 2.15234 5.1328C2.1289 5.64842 2.11718 6.37498 2.11718 7.31248V8.43748C2.11718 9.37498 2.1289 10.1015 2.15234 10.6172C2.19922 11.4843 2.29296 12.1172 2.43359 12.5156C2.73828 13.2422 3.24218 13.7461 3.9453 14.0273C4.34374 14.1679 4.97655 14.2617 5.84374 14.3086C6.35936 14.332 7.08592 14.3437 8.02342 14.3437H9.14842C10.1094 14.3437 10.8359 14.332 11.3281 14.3086C12.2187 14.2617 12.8515 14.1679 13.2265 14.0273C13.9531 13.7226 14.457 13.2187 14.7382 12.5156Z" fill="#99A2AA"/>
</svg>
