<svg width="17" height="16" viewBox="0 0 17 16" fill="none" xmlns="http://www.w3.org/2000/svg">
<g clip-path="url(#clip0_1376_1722)">
<path d="M15.2571 2.66663C15.2571 3.86328 14.2871 4.83337 13.0905 4.83337C11.8938 4.83337 10.9238 3.86328 10.9238 2.66663C10.9238 1.47009 11.8938 0.5 13.0905 0.5C14.2871 0.5 15.2571 1.47009 15.2571 2.66663Z" fill="#99A2AA"/>
<path d="M13.0905 5.33337C11.6198 5.33337 10.4238 4.13733 10.4238 2.66663C10.4238 1.19604 11.6198 0 13.0905 0C14.5612 0 15.7571 1.19604 15.7571 2.66663C15.7571 4.13733 14.5612 5.33337 13.0905 5.33337ZM13.0905 1C12.1711 1 11.4238 1.74805 11.4238 2.66663C11.4238 3.58533 12.1711 4.33337 13.0905 4.33337C14.0098 4.33337 14.7571 3.58533 14.7571 2.66663C14.7571 1.74805 14.0098 1 13.0905 1Z" fill="#99A2AA"/>
<path d="M15.2571 13.3335C15.2571 14.53 14.2871 15.5001 13.0905 15.5001C11.8938 15.5001 10.9238 14.53 10.9238 13.3335C10.9238 12.1368 11.8938 11.1667 13.0905 11.1667C14.2871 11.1667 15.2571 12.1368 15.2571 13.3335Z" fill="#99A2AA"/>
<path d="M13.0905 16.0001C11.6198 16.0001 10.4238 14.8041 10.4238 13.3335C10.4238 11.8628 11.6198 10.6667 13.0905 10.6667C14.5612 10.6667 15.7571 11.8628 15.7571 13.3335C15.7571 14.8041 14.5612 16.0001 13.0905 16.0001ZM13.0905 11.6667C12.1711 11.6667 11.4238 12.4148 11.4238 13.3335C11.4238 14.2521 12.1711 15.0001 13.0905 15.0001C14.0098 15.0001 14.7571 14.2521 14.7571 13.3335C14.7571 12.4148 14.0098 11.6667 13.0905 11.6667Z" fill="#99A2AA"/>
<path d="M5.92322 7.99988C5.92322 9.19653 4.95312 10.1665 3.75647 10.1665C2.55994 10.1665 1.58984 9.19653 1.58984 7.99988C1.58984 6.80322 2.55994 5.83325 3.75647 5.83325C4.95312 5.83325 5.92322 6.80322 5.92322 7.99988Z" fill="#99A2AA"/>
<path d="M3.75647 10.6665C2.28589 10.6665 1.08984 9.47058 1.08984 7.99988C1.08984 6.52918 2.28589 5.33325 3.75647 5.33325C5.22717 5.33325 6.42322 6.52918 6.42322 7.99988C6.42322 9.47058 5.22717 10.6665 3.75647 10.6665ZM3.75647 6.33325C2.83716 6.33325 2.08984 7.08118 2.08984 7.99988C2.08984 8.91858 2.83716 9.6665 3.75647 9.6665C4.6759 9.6665 5.42322 8.91858 5.42322 7.99988C5.42322 7.08118 4.6759 6.33325 3.75647 6.33325Z" fill="#99A2AA"/>
<path d="M5.33042 7.68018C5.09836 7.68018 4.87302 7.55945 4.75034 7.34351C4.56833 7.02418 4.68039 6.61683 4.99973 6.43409L11.1856 2.90748C11.505 2.72413 11.9123 2.83619 12.0951 3.15675C12.2771 3.47608 12.165 3.88343 11.8457 4.06617L5.65964 7.59278C5.55564 7.65211 5.44236 7.68018 5.33042 7.68018Z" fill="#99A2AA"/>
<path d="M11.516 13.1801C11.4039 13.1801 11.2906 13.152 11.1866 13.0927L5.00061 9.56604C4.68128 9.38403 4.56934 8.97668 4.75135 8.65662C4.93262 8.33667 5.34058 8.224 5.66065 8.40735L11.8467 11.934C12.166 12.116 12.278 12.5233 12.0959 12.8434C11.9727 13.0593 11.7473 13.1801 11.516 13.1801Z" fill="#99A2AA"/>
</g>
<defs>
<clipPath id="clip0_1376_1722">
<rect width="16" height="16" fill="white" transform="translate(0.433594)"/>
</clipPath>
</defs>
</svg>
